<?xml version="1.0" encoding="utf-8"?>
<!-- Generator: Adobe Illustrator 23.0.3, SVG Export Plug-In . SVG Version: 6.00 Build 0)  -->
<svg version="1.1" id="Layer_1" xmlns="http://www.w3.org/2000/svg" xmlns:xlink="http://www.w3.org/1999/xlink" x="0px" y="0px"
	 viewBox="0 0 96 120" style="enable-background:new 0 0 96 120;" xml:space="preserve">
<style type="text/css">
	.st0{fill:#F48924;}
</style>
<g>
	<g>
		<path class="st0" d="M47,77c6.6,0,12-5.4,12-12s-5.4-12-12-12s-12,5.4-12,12S40.4,77,47,77z M47,57c4.4,0,8,3.6,8,8s-3.6,8-8,8
			s-8-3.6-8-8S42.6,57,47,57z"/>
		<path class="st0" d="M56.9,80H56l-0.6,0.6C53.1,82.8,50.1,84,47,84s-6.1-1.2-8.4-3.4L38,80h-0.9C29.8,80.6,24,86.8,24,94.2v9.8h46
			v-9.8C70,86.8,64.3,80.6,56.9,80z M66,100H28v-5.8c0-5,3.7-9.3,8.6-10C39.5,86.6,43.2,88,47,88c3.9,0,7.5-1.4,10.4-3.9
			c4.9,0.8,8.6,5,8.6,10V100z"/>
		<path class="st0" d="M21,79c5.5,0,10-4.5,10-10s-4.5-10-10-10s-10,4.5-10,10S15.5,79,21,79z M21,63c3.3,0,6,2.7,6,6s-2.7,6-6,6
			s-6-2.7-6-6S17.7,63,21,63z"/>
		<path class="st0" d="M21,96H7v-4c0-3.3,2.7-6,6-6h0.2c2.2,2,4.8,3,7.8,3v-4c-2.2,0-4-0.8-5.5-2.4L14.9,82H13C7.5,82,3,86.5,3,92v8
			h18V96z"/>
		<path class="st0" d="M83,69c0-5.5-4.5-10-10-10s-10,4.5-10,10s4.5,10,10,10S83,74.5,83,69z M67,69c0-3.3,2.7-6,6-6s6,2.7,6,6
			s-2.7,6-6,6S67,72.3,67,69z"/>
		<path class="st0" d="M81,82h-1.9l-0.6,0.6C77.1,84.2,75.2,85,73,85v4c3,0,5.7-1,7.8-3H81c3.3,0,6,2.7,6,6v4H73v4h18v-8
			C91,86.5,86.5,82,81,82z"/>
		<path class="st0" d="M88,34H69c-2.2,0-4,1.8-4,4v10c0,2.2,1.8,4,4,4h5.4l3.4,7.2l4.3-7.2H88c2.2,0,4-1.8,4-4V38
			C92,35.8,90.2,34,88,34z M88,48h-8.1l-1.7,2.8L76.9,48H69V38h19V48z M88,38L88,38h2H88z"/>
		<path class="st0" d="M22,45h8.8l5.4,9.5l4.1-9.5H57c2.2,0,4-1.8,4-4V20c0-2.2-1.8-4-4-4H22c-2.2,0-4,1.8-4,4v21
			C18,43.2,19.8,45,22,45z M57,20h2H57L57,20z M22,20h35v21H37.7l-1.9,4.5L33.2,41H22V20z"/>
		<rect x="29" y="24" class="st0" width="22" height="4"/>
		<rect x="30" y="32" class="st0" width="14" height="4"/>
	</g>
</g>
</svg>
